<svg width="308" height="304" viewBox="0 0 308 304" fill="none" xmlns="http://www.w3.org/2000/svg">
<path d="M29.6814 281.805C32.6599 287.684 37.6492 292.629 44.6629 293.015C53.5848 293.507 60.9062 287.937 59.8872 278.526C59.6615 276.447 55.8759 275.934 54.8397 277.565C49.3238 286.278 36.8831 280.373 38.846 270.999C39.2085 271.023 39.5676 271.057 39.9403 271.03C44.0952 270.722 47.2208 267.094 46.913 262.939C46.8275 261.794 46.4719 260.74 45.9418 259.8C47.6756 258.159 49.4777 256.562 51.468 255.115C68.9595 242.411 84.43 251.343 100.755 260.504C103.854 262.242 107.003 263.876 110.19 265.425C103.047 264.522 95.455 264.386 89.2962 267.474C73.9625 275.158 71.2952 297.597 89.7271 303.373C104.377 307.966 119.321 286.087 103.888 277.962C99.3123 275.554 90.6674 273.721 87.7129 279.873C84.7514 286.032 87.9419 291.486 94.7402 292.181C97.9718 292.509 97.1682 290.149 95.4481 288.45C94.7094 287.721 93.8135 284.278 95.92 282.674C98.1838 280.954 103.098 282.127 104.24 286.073C104.363 286.764 104.486 287.451 104.606 288.142C104.832 290.679 104.267 293.025 102.913 295.18C96.7476 302.744 84.218 300.326 82.2244 290.536C80.1897 280.561 86.7519 270.986 97.0416 269.46C106.145 268.11 115.706 269.238 124.939 271.782C128.578 273.164 132.261 274.443 135.995 275.588C136.111 275.623 136.224 275.643 136.34 275.664C140.382 277.295 144.284 279.128 147.977 281.074C144.335 281.118 140.598 281.781 137.941 284.254C134.661 287.304 133.495 291.989 136.628 295.607C139.114 298.483 144.951 299.3 148.453 298.473C152.402 297.539 155.743 293.583 152.17 290.132C151.325 289.318 146.445 288.983 147.512 290.013C148.641 291.1 148.843 292.895 148.053 294.215C147.119 295.775 144.072 298.172 142.12 296.476C140.458 295.029 139.425 292.629 140.057 290.481C142.263 282.965 153.367 283.926 161.465 285.594C161.465 285.666 161.454 285.735 161.458 285.81C161.629 288.098 163.626 289.818 165.91 289.65C167.363 289.544 168.581 288.696 169.237 287.506C169.302 287.523 169.374 287.54 169.432 287.557C170.817 287.899 172.223 288.214 173.638 288.508C173.991 291.004 176.213 292.851 178.765 292.659C180.515 292.529 181.969 291.469 182.711 290.002C184.342 290.197 185.983 290.337 187.625 290.443C188.473 292.865 190.843 294.533 193.524 294.335C195.918 294.157 197.87 292.547 198.598 290.406C200.524 290.255 202.435 290.009 204.33 289.688C205.585 291.801 207.941 293.162 210.554 292.967C214.134 292.7 216.832 289.643 216.716 286.087C218.07 285.505 219.411 284.883 220.72 284.172C221.011 284.014 221.295 283.84 221.585 283.676C222.987 284.709 224.728 285.293 226.599 285.153C230.754 284.845 233.879 281.217 233.575 277.062C233.527 276.413 233.37 275.797 233.171 275.205C241.023 267.87 246.864 258.285 247.308 247.458C247.311 247.397 247.305 247.339 247.308 247.281C248.594 247.356 249.893 247.39 251.21 247.335C262.036 246.891 271.622 241.05 278.957 233.198C279.549 233.4 280.161 233.554 280.814 233.602C284.969 233.91 288.597 230.781 288.905 226.626C289.041 224.759 288.46 223.015 287.427 221.613C287.592 221.325 287.766 221.038 287.923 220.748C288.634 219.438 289.253 218.097 289.838 216.743C293.395 216.859 296.452 214.161 296.719 210.581C296.914 207.968 295.552 205.612 293.439 204.357C293.761 202.463 294.007 200.551 294.157 198.626C296.298 197.897 297.909 195.945 298.086 193.551C298.285 190.873 296.616 188.5 294.195 187.652C294.089 186.011 293.945 184.369 293.754 182.738C295.217 181.996 296.281 180.546 296.411 178.792C296.599 176.241 294.756 174.018 292.259 173.666C291.962 172.25 291.651 170.845 291.309 169.46C291.295 169.401 291.274 169.33 291.257 169.265C292.447 168.608 293.296 167.387 293.402 165.937C293.569 163.65 291.849 161.653 289.565 161.485C289.493 161.482 289.421 161.492 289.349 161.492C287.684 153.394 286.723 142.29 294.236 140.085C296.383 139.452 298.784 140.485 300.231 142.147C301.927 144.096 299.533 147.146 297.974 148.08C296.654 148.87 294.858 148.668 293.771 147.54C292.742 146.473 293.073 151.353 293.89 152.197C297.341 155.774 301.298 152.43 302.231 148.48C303.059 144.978 302.241 139.141 299.365 136.655C295.744 133.522 291.059 134.689 288.012 137.968C285.543 140.625 284.876 144.363 284.835 148.005C282.89 144.315 281.057 140.413 279.425 136.371C279.401 136.255 279.384 136.142 279.35 136.026C278.205 132.291 276.926 128.612 275.544 124.973C273 115.74 271.875 106.182 273.222 97.0758C274.747 86.7861 284.319 80.2272 294.294 82.2585C304.085 84.2521 306.502 96.7851 298.938 102.947C296.784 104.302 294.438 104.866 291.9 104.64C291.209 104.517 290.522 104.394 289.831 104.274C285.882 103.132 284.709 98.2146 286.429 95.9542C288.033 93.8477 291.473 94.7436 292.205 95.4823C293.904 97.2023 296.264 98.006 295.936 94.7744C295.241 87.9761 289.787 84.7856 283.628 87.747C277.476 90.705 279.309 99.3465 281.717 103.922C289.845 119.358 311.721 104.414 307.128 89.7612C301.352 71.3293 278.912 73.9966 271.229 89.3303C268.144 95.4891 268.277 103.081 269.18 110.224C267.631 107.037 265.996 103.888 264.259 100.79C255.098 84.4642 246.166 68.9936 258.87 51.5021C260.316 49.5119 261.913 47.7097 263.555 45.976C264.495 46.506 265.548 46.8651 266.694 46.9506C270.846 47.2583 274.477 44.1294 274.785 39.9745C274.812 39.6017 274.782 39.2392 274.754 38.8802C284.124 36.9173 290.03 49.3614 281.32 54.8739C279.685 55.9066 280.198 59.6956 282.277 59.9213C291.688 60.9438 297.259 53.6188 296.766 44.697C296.38 37.6833 291.435 32.6941 285.557 29.7155C295.826 19.8259 290.167 1.03143 274.296 0.00552368C271.536 -0.172302 272.104 3.99969 273.762 5.0632C285.55 12.6104 278.899 23.5294 270.534 32.6325C269.7 32.229 268.787 31.9588 267.805 31.8836C263.651 31.5758 260.022 34.7047 259.715 38.8596C259.615 40.2138 259.909 41.4962 260.457 42.6418C259.526 43.5446 258.685 44.3789 257.984 45.1244C251.066 52.4972 247.14 63.4401 248.368 73.5486C249.695 84.4641 255.101 93.3723 260.686 102.612C265.579 110.707 269.512 119.457 272.75 128.4C273.335 130.452 273.998 132.479 274.71 134.494C272.504 132.305 270.069 130.489 267.354 129.241C250.694 121.581 235.459 132.842 229.033 148.121C224.383 159.177 219.038 176.039 242.503 188.764C244.76 189.988 246.901 191.492 249.062 192.877C255.826 197.214 259.037 210.919 249.736 212.746C247.564 213.173 248.857 217.362 250.317 217.96C257.984 221.096 267.344 216.688 268.281 207.801C268.794 202.938 267.922 198.639 265.747 194.926C271.598 196.328 277.606 197.203 283.591 197.289C283.813 197.419 284.008 197.415 284.175 197.306C284.182 197.306 284.192 197.306 284.192 197.306C285.7 197.316 285.571 194.156 284.418 192.744C284.398 192.713 284.384 192.676 284.363 192.645C279.761 186.25 273.533 183.778 266.776 182.577C272.696 177.362 274.884 168.618 272.124 160.845C268.715 151.236 258.275 143.207 248.46 149.903C241.744 154.485 243.191 166.522 251.644 168.201C255.714 169.008 259.537 167.654 261.411 163.834C262.067 162.497 262.036 161.085 261.599 159.789C266.492 165.113 263.709 176.501 256.168 178.207C252.54 179.028 247.941 178.296 244.439 177.311C223.928 171.563 235.004 141.836 244.795 135.39C260.364 125.137 274.634 137.712 281.463 151.253C283.32 154.94 284.948 158.783 286.323 162.723C285.649 163.403 285.191 164.303 285.116 165.329C284.958 167.442 286.425 169.289 288.45 169.692C288.833 171.156 289.182 172.63 289.486 174.11C287.988 174.842 286.897 176.309 286.767 178.084C286.579 180.608 288.385 182.81 290.844 183.196C290.974 184.619 291.066 186.041 291.114 187.461C288.641 187.98 286.696 190.056 286.497 192.696C286.292 195.456 288.063 197.904 290.608 198.677C290.399 200.281 290.119 201.871 289.784 203.448C286.446 203.588 283.652 206.183 283.399 209.596C283.231 211.856 284.22 213.936 285.858 215.269C285.273 216.531 284.644 217.779 283.95 219C283.31 218.768 282.647 218.586 281.935 218.535C277.784 218.227 274.152 221.356 273.844 225.508C273.711 227.306 274.252 228.989 275.212 230.364C274.751 230.818 274.296 231.273 273.814 231.718C266.434 238.492 256.955 242.069 247.14 242.045C246.918 239.798 246.521 237.606 245.913 235.517C245.824 235.209 244.569 231.783 244.422 231.451C241.255 224.328 235.568 218.494 227.365 216.654C231.294 207.281 244.251 210.328 244.829 205.78C244.706 194.813 224.136 199.022 220.402 216.11C199.782 217.017 193.934 240.927 205.766 241.06C210.769 240.424 206.614 224.834 219.882 222.741C219.896 223.083 219.858 223.391 219.882 223.74C220.635 233.92 227.084 240.821 235.216 244.435C235.548 244.583 238.978 245.838 239.286 245.926C240.14 246.176 241.016 246.385 241.902 246.569C241.225 255.231 237.74 263.473 231.708 270.049C231.263 270.531 230.808 270.986 230.353 271.447C228.979 270.486 227.296 269.946 225.497 270.079C221.343 270.387 218.217 274.015 218.525 278.17C218.576 278.882 218.757 279.545 218.99 280.184C217.769 280.875 216.521 281.504 215.259 282.093C213.925 280.455 211.846 279.466 209.586 279.634C206.173 279.887 203.578 282.677 203.437 286.018C201.861 286.354 200.271 286.634 198.667 286.843C197.894 284.298 195.442 282.53 192.686 282.732C190.046 282.927 187.967 284.876 187.45 287.349C186.031 287.301 184.609 287.208 183.186 287.079C182.8 284.62 180.597 282.814 178.074 283.002C176.296 283.132 174.828 284.227 174.1 285.721C172.619 285.413 171.149 285.068 169.682 284.685C169.278 282.66 167.428 281.193 165.318 281.351C164.293 281.426 163.393 281.884 162.713 282.558C158.773 281.183 154.926 279.559 151.243 277.698C137.701 270.873 125.131 256.599 135.379 241.033C141.825 231.242 171.552 220.166 177.301 240.677C178.282 244.179 179.018 248.778 178.197 252.407C176.49 259.947 165.106 262.731 159.779 257.837C161.075 258.275 162.487 258.306 163.827 257.649C167.644 255.778 169.001 251.955 168.194 247.882C166.515 239.429 154.478 237.983 149.896 244.699C143.2 254.517 151.229 264.953 160.839 268.363C168.612 271.122 177.356 268.937 182.571 263.014C183.771 269.772 186.243 275.995 192.638 280.602C192.665 280.622 192.706 280.639 192.737 280.656C194.15 281.812 197.306 281.942 197.299 280.434C197.299 280.427 197.299 280.417 197.299 280.417C197.408 280.249 197.412 280.055 197.282 279.832C197.193 273.848 196.321 267.84 194.919 261.989C198.633 264.16 202.931 265.035 207.794 264.522C216.682 263.585 221.093 254.226 217.954 246.559C217.355 245.099 213.166 243.806 212.739 245.978C210.913 255.279 197.203 252.068 192.871 245.304C191.486 243.143 189.981 241.002 188.757 238.745C176.032 215.279 159.17 220.628 148.114 225.275C132.835 231.701 121.574 246.939 129.234 263.596C130.482 266.311 132.298 268.746 134.487 270.951C132.473 270.24 130.445 269.58 128.393 268.995C119.454 265.757 110.703 261.824 102.609 256.931C93.369 251.343 84.4608 245.94 73.5452 244.613C63.4367 243.382 52.4939 247.311 45.1211 254.229C44.3756 254.93 43.5412 255.772 42.6384 256.702C41.4928 256.155 40.2105 255.86 38.8563 255.96C34.7014 256.267 31.5759 259.896 31.8837 264.051C31.9555 265.029 32.2256 265.945 32.6325 266.779C23.5294 275.14 12.6104 281.795 5.06326 270.008C4.00317 268.349 -0.172241 267.781 0.00558472 270.541C0.997284 286.415 19.7917 292.075 29.6814 281.805ZM226.349 225.648C226.25 224.591 226.243 223.647 226.253 222.731C235.148 223.839 240.694 229.919 241.744 238.728C241.864 239.72 241.895 240.705 241.939 241.693C233.202 240.455 227.207 234.758 226.349 225.648Z" fill="url(#paint0_linear_54_113)"/>
<path d="M255.854 258.651C255.854 258.651 263.097 280.574 268.787 286.391C275.414 293.169 279.186 294.626 284.261 292.051C292.191 288.033 291.107 279.159 287.058 275.079C279.678 267.641 255.854 258.651 255.854 258.651Z" fill="url(#paint1_linear_54_113)"/>
<path d="M242.719 287.051C243.218 291.599 248.211 293.942 252.157 292.471C256.691 290.785 259.974 286.114 259.53 281.197C258.983 275.147 255.631 267.155 249.373 259.383C250.365 268.773 242.148 281.867 242.719 287.051Z" fill="url(#paint2_linear_54_113)"/>
<path d="M282.302 247.431C276.916 246.689 265.853 253.931 256.1 252.625C264.646 260.145 274.577 262.327 280.835 263.082C285.923 263.695 289.774 260.778 290.28 256.565C290.721 252.892 287.031 248.08 282.302 247.431Z" fill="url(#paint3_linear_54_113)"/>
<path d="M240.247 100.45C245.749 104.591 251.785 108.25 258.19 111.321L260.621 112.487L250.663 93.6963C249.651 91.7847 248.502 89.6167 246.58 87.9377C244.85 86.4262 241.939 85.0412 238.961 85.6841C236.273 86.2654 234.256 88.5806 234.054 91.3129C234.009 91.9147 234.057 92.5131 234.194 93.091C234.905 96.0935 237.525 98.4018 240.247 100.45Z" fill="url(#paint4_linear_54_113)"/>
<path d="M231.218 113.322C234.494 114.42 237.948 114.656 241.285 114.885L258.589 116.075L238.464 102.28C236.922 101.22 235.325 100.129 233.451 99.3936C231.276 98.5421 229.088 98.3711 227.299 98.9149C224.912 99.6398 223.25 101.736 223.062 104.26C222.99 105.214 223.144 106.182 223.5 107.06C224.601 109.769 227.415 112.05 231.218 113.322Z" fill="url(#paint5_linear_54_113)"/>
<path d="M243.471 116.358C240.359 115.969 236.317 115.661 232.692 116.769C228.838 117.942 226.144 120.718 225.815 123.988C225.545 127.612 228.777 131.278 232.593 131.678C235.852 132.02 238.471 130.205 240.67 128.474L241.453 127.859C245.427 124.73 249.537 121.495 254.339 119.306L257.827 117.719L253.997 117.613C251.599 117.545 249.134 117.179 246.747 116.823C245.653 116.659 244.562 116.495 243.471 116.358Z" fill="url(#paint6_linear_54_113)"/>
<path d="M93.6496 246.932L112.441 256.89L111.275 254.458C108.204 248.053 104.545 242.018 100.403 236.515C98.3551 233.793 96.0468 231.174 93.0443 230.463C92.4698 230.326 91.8714 230.278 91.2661 230.322C88.5338 230.524 86.2187 232.545 85.6374 235.23C84.9945 238.208 86.3795 241.118 87.8909 242.849C89.5666 244.77 91.738 245.919 93.6496 246.932Z" fill="url(#paint7_linear_54_113)"/>
<path d="M102.229 234.73L116.024 254.854L114.834 237.555C114.605 234.217 114.365 230.766 113.271 227.49C112.002 223.688 109.718 220.873 107.01 219.769C106.131 219.41 105.163 219.259 104.209 219.328C101.689 219.516 99.5892 221.178 98.8642 223.565C98.3205 225.357 98.488 227.542 99.3429 229.717C100.078 231.591 101.172 233.184 102.229 234.73Z" fill="url(#paint8_linear_54_113)"/>
<path d="M116.773 243.013C117.129 245.4 117.495 247.868 117.563 250.262L117.669 254.092L119.256 250.604C121.441 245.803 124.68 241.693 127.809 237.719L128.424 236.932C130.151 234.734 131.967 232.114 131.628 228.855C131.228 225.039 127.562 221.807 123.938 222.078C120.668 222.406 117.892 225.1 116.719 228.954C115.614 232.583 115.918 236.621 116.308 239.733C116.449 240.831 116.609 241.922 116.773 243.013Z" fill="url(#paint9_linear_54_113)"/>
<defs>
<linearGradient id="paint0_linear_54_113" x1="153.877" y1="304" x2="153.877" y2="0" gradientUnits="userSpaceOnUse">
<stop stop-color="#6B87F4"/>
<stop offset="1" stop-color="#687FE4"/>
</linearGradient>
<linearGradient id="paint1_linear_54_113" x1="273.014" y1="293.245" x2="273.014" y2="258.651" gradientUnits="userSpaceOnUse">
<stop stop-color="#6B87F4"/>
<stop offset="1" stop-color="#687FE4"/>
</linearGradient>
<linearGradient id="paint2_linear_54_113" x1="251.13" y1="292.909" x2="251.13" y2="259.383" gradientUnits="userSpaceOnUse">
<stop stop-color="#6B87F4"/>
<stop offset="1" stop-color="#687FE4"/>
</linearGradient>
<linearGradient id="paint3_linear_54_113" x1="273.208" y1="263.164" x2="273.208" y2="247.377" gradientUnits="userSpaceOnUse">
<stop stop-color="#6B87F4"/>
<stop offset="1" stop-color="#687FE4"/>
</linearGradient>
<linearGradient id="paint4_linear_54_113" x1="247.329" y1="112.487" x2="247.329" y2="85.5227" gradientUnits="userSpaceOnUse">
<stop stop-color="#6B87F4"/>
<stop offset="1" stop-color="#687FE4"/>
</linearGradient>
<linearGradient id="paint5_linear_54_113" x1="240.817" y1="116.075" x2="240.817" y2="98.6027" gradientUnits="userSpaceOnUse">
<stop stop-color="#6B87F4"/>
<stop offset="1" stop-color="#687FE4"/>
</linearGradient>
<linearGradient id="paint6_linear_54_113" x1="241.813" y1="131.72" x2="241.813" y2="116.001" gradientUnits="userSpaceOnUse">
<stop stop-color="#6B87F4"/>
<stop offset="1" stop-color="#687FE4"/>
</linearGradient>
<linearGradient id="paint7_linear_54_113" x1="98.9583" y1="256.89" x2="98.9583" y2="230.306" gradientUnits="userSpaceOnUse">
<stop stop-color="#6B87F4"/>
<stop offset="1" stop-color="#687FE4"/>
</linearGradient>
<linearGradient id="paint8_linear_54_113" x1="107.288" y1="254.854" x2="107.288" y2="219.312" gradientUnits="userSpaceOnUse">
<stop stop-color="#6B87F4"/>
<stop offset="1" stop-color="#687FE4"/>
</linearGradient>
<linearGradient id="paint9_linear_54_113" x1="123.811" y1="254.092" x2="123.811" y2="222.062" gradientUnits="userSpaceOnUse">
<stop stop-color="#6B87F4"/>
<stop offset="1" stop-color="#687FE4"/>
</linearGradient>
</defs>
</svg>
