<svg width="25" height="25" viewBox="0 0 25 25" fill="none" xmlns="http://www.w3.org/2000/svg">
<path d="M18.275 6.725H18.2855M7.25 2H17.75C20.6495 2 23 4.3505 23 7.25V17.75C23 20.6495 20.6495 23 17.75 23H7.25C4.3505 23 2 20.6495 2 17.75V7.25C2 4.3505 4.3505 2 7.25 2ZM16.7 11.8385C16.8296 12.7124 16.6803 13.6048 16.2734 14.389C15.8666 15.1731 15.2228 15.809 14.4337 16.2062C13.6446 16.6033 12.7504 16.7416 11.8782 16.6012C11.006 16.4609 10.2002 16.0491 9.57558 15.4244C8.95091 14.7998 8.53912 13.994 8.39877 13.1218C8.25842 12.2496 8.39667 11.3554 8.79384 10.5663C9.19102 9.7772 9.8269 9.13343 10.611 8.72655C11.3952 8.31968 12.2876 8.17042 13.1615 8.3C14.0529 8.43218 14.8781 8.84754 15.5153 9.48472C16.1525 10.1219 16.5678 10.9471 16.7 11.8385Z" stroke="white" stroke-width="2.5" stroke-linecap="round" stroke-linejoin="round"/>
</svg>
