<svg width="11" height="20" viewBox="0 0 11 20" fill="none" xmlns="http://www.w3.org/2000/svg">
<path fill-rule="evenodd" clip-rule="evenodd" d="M6.88261 0C8.13646 0 9.25927 0.561108 10.0136 1.44592V8.61331C9.98717 8.93542 9.80418 9.60649 9.38406 10.2191C8.96868 10.8248 8.38767 11.2841 7.58875 11.3732C7.0499 11.4334 6.66182 11.9189 6.72197 12.4578C6.78211 12.9966 7.26768 13.3847 7.80653 13.3246C8.70491 13.2243 9.43491 12.8711 10.0136 12.4066V18.1704C9.15274 19.2834 7.80418 20 6.28825 20C3.92512 20 1.96873 18.2585 1.6324 15.9889C1.81151 15.4379 2.1033 14.9619 2.38277 14.7412C2.8083 14.4052 2.88089 13.7879 2.54489 13.3624C2.2089 12.9368 1.59154 12.8643 1.16602 13.2003C1.02122 13.3146 0.885662 13.4439 0.759421 13.5846C0.279088 12.5313 0 11.2232 0 10.069C0 8.53845 0.490807 7.0356 1.29089 5.92864C1.46428 6.26346 1.67153 6.55776 1.89384 6.811C2.47328 7.47114 3.19699 7.89872 3.76121 8.02737C4.28985 8.14787 4.81608 7.81704 4.93659 7.28842C5.05712 6.75978 4.72628 6.23354 4.19764 6.11303C4.10781 6.09255 3.72901 5.92537 3.36944 5.51575C3.08034 5.18639 2.8302 4.72891 2.76993 4.11708L2.76991 4.11268C2.76991 1.84131 4.61122 0 6.88261 0Z" fill="white"/>
</svg>
