<svg width="21" height="21" viewBox="0 0 21 21" fill="none" xmlns="http://www.w3.org/2000/svg">
<path d="M20.9685 17.1465C20.9685 17.5245 20.8845 17.913 20.706 18.291C20.5275 18.669 20.2965 19.026 19.992 19.362C19.4775 19.929 18.9105 20.3385 18.27 20.601C17.64 20.8635 16.9575 21 16.2225 21C15.1515 21 14.007 20.748 12.7995 20.2335C11.592 19.719 10.3845 19.026 9.1875 18.1545C7.98 17.2725 6.8355 16.296 5.7435 15.2145C4.662 14.1225 3.6855 12.978 2.814 11.781C1.953 10.584 1.26 9.387 0.756 8.2005C0.252 7.0035 0 5.859 0 4.767C0 4.053 0.126 3.3705 0.378 2.7405C0.63 2.1 1.029 1.512 1.5855 0.987C2.2575 0.3255 2.9925 0 3.7695 0C4.0635 0 4.3575 0.0630001 4.62 0.189C4.893 0.315 5.1345 0.504 5.3235 0.777L7.7595 4.2105C7.9485 4.473 8.085 4.7145 8.1795 4.9455C8.274 5.166 8.3265 5.3865 8.3265 5.586C8.3265 5.838 8.253 6.09 8.106 6.3315C7.9695 6.573 7.77 6.825 7.518 7.077L6.72 7.9065C6.6045 8.022 6.552 8.1585 6.552 8.3265C6.552 8.4105 6.5625 8.484 6.5835 8.568C6.615 8.652 6.6465 8.715 6.6675 8.778C6.8565 9.1245 7.182 9.576 7.644 10.122C8.1165 10.668 8.6205 11.2245 9.1665 11.781C9.7335 12.3375 10.2795 12.852 10.836 13.3245C11.382 13.7865 11.8335 14.1015 12.1905 14.2905C12.243 14.3115 12.306 14.343 12.3795 14.3745C12.4635 14.406 12.5475 14.4165 12.642 14.4165C12.8205 14.4165 12.957 14.3535 13.0725 14.238L13.8705 13.4505C14.133 13.188 14.385 12.9885 14.6265 12.8625C14.868 12.7155 15.1095 12.642 15.372 12.642C15.5715 12.642 15.7815 12.684 16.0125 12.7785C16.2435 12.873 16.485 13.0095 16.7475 13.188L20.223 15.6555C20.496 15.8445 20.685 16.065 20.8005 16.3275C20.9055 16.59 20.9685 16.8525 20.9685 17.1465Z" fill="white"/>
</svg>
