<svg width="30" height="30" viewBox="0 0 30 30" fill="none" xmlns="http://www.w3.org/2000/svg">
<path d="M11.1845 1.91822C8.6259 -0.639406 4.47774 -0.639406 1.91912 1.91822C0.482066 3.35471 -0.147456 5.29389 0.0289605 7.16685C0.0761534 12.1965 2.70374 17.9587 7.36954 22.6227C12.0354 27.2867 17.7998 29.9131 22.8309 29.9602C24.7041 30.1366 26.6438 29.5075 28.0808 28.071C30.6397 25.5131 30.6397 21.3658 28.0808 18.8079C25.5222 16.2503 21.3741 16.2503 18.8154 18.8079C18.211 19.4122 17.7488 20.1063 17.4297 20.8473C15.8352 19.8573 14.2756 18.6288 12.8197 17.1735C11.364 15.7184 10.1352 14.1597 9.14496 12.5662C9.88603 12.2473 10.5802 11.7854 11.1845 11.1813C13.7434 8.62341 13.7434 4.47609 11.1845 1.91822Z" fill="white"/>
</svg>
