<svg width="11" height="20" viewBox="0 0 11 20" fill="none" xmlns="http://www.w3.org/2000/svg">
<path d="M0 18.1704C0.860873 19.2833 2.20945 20 3.72541 20C5.7848 20 7.53526 18.6774 8.17378 16.8354C7.78627 16.7999 7.36845 16.7055 6.95172 16.5486C6.01696 16.1969 5.00099 15.5034 4.16739 14.2932C3.85999 13.8466 3.97262 13.2353 4.41918 12.9278C4.86559 12.6202 5.47693 12.7329 5.78449 13.1795C6.38468 14.0509 7.07377 14.4967 7.64333 14.7111C7.93204 14.8196 8.19027 14.8689 8.39133 14.8834L8.42698 14.8856C9.40023 13.8297 10.0136 11.7802 10.0136 10.069C10.0136 8.61014 9.56767 7.17642 8.83318 6.08674C8.62726 6.60939 8.33776 7.09956 7.95811 7.47405C7.57202 7.85472 6.95031 7.85036 6.56971 7.46428C6.18896 7.0782 6.19336 6.45662 6.57945 6.07593C6.8614 5.79787 7.12404 5.20416 7.22315 4.56035L7.21985 4.55851C7.23556 4.41207 7.24373 4.26332 7.24373 4.11268C7.24373 1.84131 5.40248 0 3.13105 0C1.87717 0 0.754343 0.561123 0 1.44598V6.04323C0.0216453 6.07975 0.0411692 6.11807 0.0583534 6.15813C0.33864 6.81174 1.13956 7.52193 2.00696 7.88793C2.50651 8.09871 2.7406 8.67454 2.52982 9.17409C2.31904 9.67362 1.74322 9.90771 1.24367 9.69693C0.829238 9.52207 0.402508 9.28327 0 8.99221V18.1704Z" fill="#3721FF"/>
</svg>
